<?xml version="1.0" encoding="utf-8" standalone="no"?>
<!DOCTYPE svg PUBLIC "-//W3C//DTD SVG 1.1//EN"
  "http://www.w3.org/Graphics/SVG/1.1/DTD/svg11.dtd">
<svg xmlns:xlink="http://www.w3.org/1999/xlink" width="460.8pt" height="345.6pt" viewBox="0 0 460.8 345.6" xmlns="http://www.w3.org/2000/svg" version="1.1">
 <metadata>
  <rdf:RDF xmlns:dc="http://purl.org/dc/elements/1.1/" xmlns:cc="http://creativecommons.org/ns#" xmlns:rdf="http://www.w3.org/1999/02/22-rdf-syntax-ns#">
   <cc:Work>
    <dc:type rdf:resource="http://purl.org/dc/dcmitype/StillImage"/>
    <dc:date>2025-06-09T17:52:52.150252</dc:date>
    <dc:format>image/svg+xml</dc:format>
    <dc:creator>
     <cc:Agent>
      <dc:title>Matplotlib v3.10.0, https://matplotlib.org/</dc:title>
     </cc:Agent>
    </dc:creator>
   </cc:Work>
  </rdf:RDF>
 </metadata>
 <defs>
  <style type="text/css">*{stroke-linejoin: round; stroke-linecap: butt}</style>
 </defs>
 <g id="figure_1">
  <g id="patch_1">
   <path d="M 0 345.6 
L 460.8 345.6 
L 460.8 0 
L 0 0 
z
" style="fill: #ffffff"/>
  </g>
  <g id="axes_1">
   <g id="patch_2">
    <path d="M 57.6 307.584 
L 414.72 307.584 
L 414.72 41.472 
L 57.6 41.472 
z
" style="fill: #ffffff"/>
   </g>
   <g id="PathCollection_1">
    <defs>
     <path id="m8e976ffae1" d="M 0 3 
C 0.795609 3 1.55874 2.683901 2.12132 2.12132 
C 2.683901 1.55874 3 0.795609 3 0 
C 3 -0.795609 2.683901 -1.55874 2.12132 -2.12132 
C 1.55874 -2.683901 0.795609 -3 0 -3 
C -0.795609 -3 -1.55874 -2.683901 -2.12132 -2.12132 
C -2.683901 -1.55874 -3 -0.795609 -3 0 
C -3 0.795609 -2.683901 1.55874 -2.12132 2.12132 
C -1.55874 2.683901 -0.795609 3 0 3 
z
" style="stroke: #1f77b4; stroke-opacity: 0.5"/>
    </defs>
    <g clip-path="url(#pe7aa4ed99b)">
     <use xlink:href="#m8e976ffae1" x="345.494053" y="181.71355" style="fill: #1f77b4; fill-opacity: 0.5; stroke: #1f77b4; stroke-opacity: 0.5"/>
     <use xlink:href="#m8e976ffae1" x="283.982444" y="53.568" style="fill: #1f77b4; fill-opacity: 0.5; stroke: #1f77b4; stroke-opacity: 0.5"/>
     <use xlink:href="#m8e976ffae1" x="398.487273" y="53.568" style="fill: #1f77b4; fill-opacity: 0.5; stroke: #1f77b4; stroke-opacity: 0.5"/>
     <use xlink:href="#m8e976ffae1" x="352.537931" y="152.635648" style="fill: #1f77b4; fill-opacity: 0.5; stroke: #1f77b4; stroke-opacity: 0.5"/>
     <use xlink:href="#m8e976ffae1" x="398.487273" y="53.568" style="fill: #1f77b4; fill-opacity: 0.5; stroke: #1f77b4; stroke-opacity: 0.5"/>
     <use xlink:href="#m8e976ffae1" x="170.323165" y="53.568" style="fill: #1f77b4; fill-opacity: 0.5; stroke: #1f77b4; stroke-opacity: 0.5"/>
     <use xlink:href="#m8e976ffae1" x="265.571631" y="175.875687" style="fill: #1f77b4; fill-opacity: 0.5; stroke: #1f77b4; stroke-opacity: 0.5"/>
     <use xlink:href="#m8e976ffae1" x="398.487273" y="69.102857" style="fill: #1f77b4; fill-opacity: 0.5; stroke: #1f77b4; stroke-opacity: 0.5"/>
     <use xlink:href="#m8e976ffae1" x="398.487273" y="53.568" style="fill: #1f77b4; fill-opacity: 0.5; stroke: #1f77b4; stroke-opacity: 0.5"/>
     <use xlink:href="#m8e976ffae1" x="398.487273" y="53.568" style="fill: #1f77b4; fill-opacity: 0.5; stroke: #1f77b4; stroke-opacity: 0.5"/>
     <use xlink:href="#m8e976ffae1" x="398.487273" y="162.896964" style="fill: #1f77b4; fill-opacity: 0.5; stroke: #1f77b4; stroke-opacity: 0.5"/>
     <use xlink:href="#m8e976ffae1" x="342.607073" y="53.568" style="fill: #1f77b4; fill-opacity: 0.5; stroke: #1f77b4; stroke-opacity: 0.5"/>
     <use xlink:href="#m8e976ffae1" x="398.487273" y="87.442528" style="fill: #1f77b4; fill-opacity: 0.5; stroke: #1f77b4; stroke-opacity: 0.5"/>
     <use xlink:href="#m8e976ffae1" x="398.487273" y="53.568" style="fill: #1f77b4; fill-opacity: 0.5; stroke: #1f77b4; stroke-opacity: 0.5"/>
     <use xlink:href="#m8e976ffae1" x="398.487273" y="90.733686" style="fill: #1f77b4; fill-opacity: 0.5; stroke: #1f77b4; stroke-opacity: 0.5"/>
     <use xlink:href="#m8e976ffae1" x="398.487273" y="53.568" style="fill: #1f77b4; fill-opacity: 0.5; stroke: #1f77b4; stroke-opacity: 0.5"/>
     <use xlink:href="#m8e976ffae1" x="398.487273" y="225.756466" style="fill: #1f77b4; fill-opacity: 0.5; stroke: #1f77b4; stroke-opacity: 0.5"/>
     <use xlink:href="#m8e976ffae1" x="361.361923" y="53.568" style="fill: #1f77b4; fill-opacity: 0.5; stroke: #1f77b4; stroke-opacity: 0.5"/>
     <use xlink:href="#m8e976ffae1" x="398.487273" y="162.657469" style="fill: #1f77b4; fill-opacity: 0.5; stroke: #1f77b4; stroke-opacity: 0.5"/>
     <use xlink:href="#m8e976ffae1" x="398.487273" y="53.568" style="fill: #1f77b4; fill-opacity: 0.5; stroke: #1f77b4; stroke-opacity: 0.5"/>
    </g>
   </g>
   <g id="matplotlib.axis_1">
    <g id="xtick_1">
     <g id="line2d_1">
      <path d="M 73.832727 307.584 
L 73.832727 41.472 
" clip-path="url(#pe7aa4ed99b)" style="fill: none; stroke: #b0b0b0; stroke-width: 0.8; stroke-linecap: square"/>
     </g>
     <g id="line2d_2">
      <defs>
       <path id="m89ef2dfa74" d="M 0 0 
L 0 3.5 
" style="stroke: #000000; stroke-width: 0.8"/>
      </defs>
      <g>
       <use xlink:href="#m89ef2dfa74" x="73.832727" y="307.584" style="stroke: #000000; stroke-width: 0.8"/>
      </g>
     </g>
     <g id="text_1">
      <!-- 0 -->
      <g transform="translate(70.651477 322.182437) scale(0.1 -0.1)">
       <defs>
        <path id="DejaVuSans-30" d="M 2034 4250 
Q 1547 4250 1301 3770 
Q 1056 3291 1056 2328 
Q 1056 1369 1301 889 
Q 1547 409 2034 409 
Q 2525 409 2770 889 
Q 3016 1369 3016 2328 
Q 3016 3291 2770 3770 
Q 2525 4250 2034 4250 
z
M 2034 4750 
Q 2819 4750 3233 4129 
Q 3647 3509 3647 2328 
Q 3647 1150 3233 529 
Q 2819 -91 2034 -91 
Q 1250 -91 836 529 
Q 422 1150 422 2328 
Q 422 3509 836 4129 
Q 1250 4750 2034 4750 
z
" transform="scale(0.015625)"/>
       </defs>
       <use xlink:href="#DejaVuSans-30"/>
      </g>
     </g>
    </g>
    <g id="xtick_2">
     <g id="line2d_3">
      <path d="M 116.944561 307.584 
L 116.944561 41.472 
" clip-path="url(#pe7aa4ed99b)" style="fill: none; stroke: #b0b0b0; stroke-width: 0.8; stroke-linecap: square"/>
     </g>
     <g id="line2d_4">
      <g>
       <use xlink:href="#m89ef2dfa74" x="116.944561" y="307.584" style="stroke: #000000; stroke-width: 0.8"/>
      </g>
     </g>
     <g id="text_2">
      <!-- 200 -->
      <g transform="translate(107.400811 322.182437) scale(0.1 -0.1)">
       <defs>
        <path id="DejaVuSans-32" d="M 1228 531 
L 3431 531 
L 3431 0 
L 469 0 
L 469 531 
Q 828 903 1448 1529 
Q 2069 2156 2228 2338 
Q 2531 2678 2651 2914 
Q 2772 3150 2772 3378 
Q 2772 3750 2511 3984 
Q 2250 4219 1831 4219 
Q 1534 4219 1204 4116 
Q 875 4013 500 3803 
L 500 4441 
Q 881 4594 1212 4672 
Q 1544 4750 1819 4750 
Q 2544 4750 2975 4387 
Q 3406 4025 3406 3419 
Q 3406 3131 3298 2873 
Q 3191 2616 2906 2266 
Q 2828 2175 2409 1742 
Q 1991 1309 1228 531 
z
" transform="scale(0.015625)"/>
       </defs>
       <use xlink:href="#DejaVuSans-32"/>
       <use xlink:href="#DejaVuSans-30" transform="translate(63.623047 0)"/>
       <use xlink:href="#DejaVuSans-30" transform="translate(127.246094 0)"/>
      </g>
     </g>
    </g>
    <g id="xtick_3">
     <g id="line2d_5">
      <path d="M 160.056396 307.584 
L 160.056396 41.472 
" clip-path="url(#pe7aa4ed99b)" style="fill: none; stroke: #b0b0b0; stroke-width: 0.8; stroke-linecap: square"/>
     </g>
     <g id="line2d_6">
      <g>
       <use xlink:href="#m89ef2dfa74" x="160.056396" y="307.584" style="stroke: #000000; stroke-width: 0.8"/>
      </g>
     </g>
     <g id="text_3">
      <!-- 400 -->
      <g transform="translate(150.512646 322.182437) scale(0.1 -0.1)">
       <defs>
        <path id="DejaVuSans-34" d="M 2419 4116 
L 825 1625 
L 2419 1625 
L 2419 4116 
z
M 2253 4666 
L 3047 4666 
L 3047 1625 
L 3713 1625 
L 3713 1100 
L 3047 1100 
L 3047 0 
L 2419 0 
L 2419 1100 
L 313 1100 
L 313 1709 
L 2253 4666 
z
" transform="scale(0.015625)"/>
       </defs>
       <use xlink:href="#DejaVuSans-34"/>
       <use xlink:href="#DejaVuSans-30" transform="translate(63.623047 0)"/>
       <use xlink:href="#DejaVuSans-30" transform="translate(127.246094 0)"/>
      </g>
     </g>
    </g>
    <g id="xtick_4">
     <g id="line2d_7">
      <path d="M 203.16823 307.584 
L 203.16823 41.472 
" clip-path="url(#pe7aa4ed99b)" style="fill: none; stroke: #b0b0b0; stroke-width: 0.8; stroke-linecap: square"/>
     </g>
     <g id="line2d_8">
      <g>
       <use xlink:href="#m89ef2dfa74" x="203.16823" y="307.584" style="stroke: #000000; stroke-width: 0.8"/>
      </g>
     </g>
     <g id="text_4">
      <!-- 600 -->
      <g transform="translate(193.62448 322.182437) scale(0.1 -0.1)">
       <defs>
        <path id="DejaVuSans-36" d="M 2113 2584 
Q 1688 2584 1439 2293 
Q 1191 2003 1191 1497 
Q 1191 994 1439 701 
Q 1688 409 2113 409 
Q 2538 409 2786 701 
Q 3034 994 3034 1497 
Q 3034 2003 2786 2293 
Q 2538 2584 2113 2584 
z
M 3366 4563 
L 3366 3988 
Q 3128 4100 2886 4159 
Q 2644 4219 2406 4219 
Q 1781 4219 1451 3797 
Q 1122 3375 1075 2522 
Q 1259 2794 1537 2939 
Q 1816 3084 2150 3084 
Q 2853 3084 3261 2657 
Q 3669 2231 3669 1497 
Q 3669 778 3244 343 
Q 2819 -91 2113 -91 
Q 1303 -91 875 529 
Q 447 1150 447 2328 
Q 447 3434 972 4092 
Q 1497 4750 2381 4750 
Q 2619 4750 2861 4703 
Q 3103 4656 3366 4563 
z
" transform="scale(0.015625)"/>
       </defs>
       <use xlink:href="#DejaVuSans-36"/>
       <use xlink:href="#DejaVuSans-30" transform="translate(63.623047 0)"/>
       <use xlink:href="#DejaVuSans-30" transform="translate(127.246094 0)"/>
      </g>
     </g>
    </g>
    <g id="xtick_5">
     <g id="line2d_9">
      <path d="M 246.280064 307.584 
L 246.280064 41.472 
" clip-path="url(#pe7aa4ed99b)" style="fill: none; stroke: #b0b0b0; stroke-width: 0.8; stroke-linecap: square"/>
     </g>
     <g id="line2d_10">
      <g>
       <use xlink:href="#m89ef2dfa74" x="246.280064" y="307.584" style="stroke: #000000; stroke-width: 0.8"/>
      </g>
     </g>
     <g id="text_5">
      <!-- 800 -->
      <g transform="translate(236.736314 322.182437) scale(0.1 -0.1)">
       <defs>
        <path id="DejaVuSans-38" d="M 2034 2216 
Q 1584 2216 1326 1975 
Q 1069 1734 1069 1313 
Q 1069 891 1326 650 
Q 1584 409 2034 409 
Q 2484 409 2743 651 
Q 3003 894 3003 1313 
Q 3003 1734 2745 1975 
Q 2488 2216 2034 2216 
z
M 1403 2484 
Q 997 2584 770 2862 
Q 544 3141 544 3541 
Q 544 4100 942 4425 
Q 1341 4750 2034 4750 
Q 2731 4750 3128 4425 
Q 3525 4100 3525 3541 
Q 3525 3141 3298 2862 
Q 3072 2584 2669 2484 
Q 3125 2378 3379 2068 
Q 3634 1759 3634 1313 
Q 3634 634 3220 271 
Q 2806 -91 2034 -91 
Q 1263 -91 848 271 
Q 434 634 434 1313 
Q 434 1759 690 2068 
Q 947 2378 1403 2484 
z
M 1172 3481 
Q 1172 3119 1398 2916 
Q 1625 2713 2034 2713 
Q 2441 2713 2670 2916 
Q 2900 3119 2900 3481 
Q 2900 3844 2670 4047 
Q 2441 4250 2034 4250 
Q 1625 4250 1398 4047 
Q 1172 3844 1172 3481 
z
" transform="scale(0.015625)"/>
       </defs>
       <use xlink:href="#DejaVuSans-38"/>
       <use xlink:href="#DejaVuSans-30" transform="translate(63.623047 0)"/>
       <use xlink:href="#DejaVuSans-30" transform="translate(127.246094 0)"/>
      </g>
     </g>
    </g>
    <g id="xtick_6">
     <g id="line2d_11">
      <path d="M 289.391898 307.584 
L 289.391898 41.472 
" clip-path="url(#pe7aa4ed99b)" style="fill: none; stroke: #b0b0b0; stroke-width: 0.8; stroke-linecap: square"/>
     </g>
     <g id="line2d_12">
      <g>
       <use xlink:href="#m89ef2dfa74" x="289.391898" y="307.584" style="stroke: #000000; stroke-width: 0.8"/>
      </g>
     </g>
     <g id="text_6">
      <!-- 1000 -->
      <g transform="translate(276.666898 322.182437) scale(0.1 -0.1)">
       <defs>
        <path id="DejaVuSans-31" d="M 794 531 
L 1825 531 
L 1825 4091 
L 703 3866 
L 703 4441 
L 1819 4666 
L 2450 4666 
L 2450 531 
L 3481 531 
L 3481 0 
L 794 0 
L 794 531 
z
" transform="scale(0.015625)"/>
       </defs>
       <use xlink:href="#DejaVuSans-31"/>
       <use xlink:href="#DejaVuSans-30" transform="translate(63.623047 0)"/>
       <use xlink:href="#DejaVuSans-30" transform="translate(127.246094 0)"/>
       <use xlink:href="#DejaVuSans-30" transform="translate(190.869141 0)"/>
      </g>
     </g>
    </g>
    <g id="xtick_7">
     <g id="line2d_13">
      <path d="M 332.503733 307.584 
L 332.503733 41.472 
" clip-path="url(#pe7aa4ed99b)" style="fill: none; stroke: #b0b0b0; stroke-width: 0.8; stroke-linecap: square"/>
     </g>
     <g id="line2d_14">
      <g>
       <use xlink:href="#m89ef2dfa74" x="332.503733" y="307.584" style="stroke: #000000; stroke-width: 0.8"/>
      </g>
     </g>
     <g id="text_7">
      <!-- 1200 -->
      <g transform="translate(319.778733 322.182437) scale(0.1 -0.1)">
       <use xlink:href="#DejaVuSans-31"/>
       <use xlink:href="#DejaVuSans-32" transform="translate(63.623047 0)"/>
       <use xlink:href="#DejaVuSans-30" transform="translate(127.246094 0)"/>
       <use xlink:href="#DejaVuSans-30" transform="translate(190.869141 0)"/>
      </g>
     </g>
    </g>
    <g id="xtick_8">
     <g id="line2d_15">
      <path d="M 375.615567 307.584 
L 375.615567 41.472 
" clip-path="url(#pe7aa4ed99b)" style="fill: none; stroke: #b0b0b0; stroke-width: 0.8; stroke-linecap: square"/>
     </g>
     <g id="line2d_16">
      <g>
       <use xlink:href="#m89ef2dfa74" x="375.615567" y="307.584" style="stroke: #000000; stroke-width: 0.8"/>
      </g>
     </g>
     <g id="text_8">
      <!-- 1400 -->
      <g transform="translate(362.890567 322.182437) scale(0.1 -0.1)">
       <use xlink:href="#DejaVuSans-31"/>
       <use xlink:href="#DejaVuSans-34" transform="translate(63.623047 0)"/>
       <use xlink:href="#DejaVuSans-30" transform="translate(127.246094 0)"/>
       <use xlink:href="#DejaVuSans-30" transform="translate(190.869141 0)"/>
      </g>
     </g>
    </g>
    <g id="text_9">
     <!-- Wall time (z3-bit-blast.VLSAT3 QF_BV) -->
     <g transform="translate(141.261562 335.860562) scale(0.1 -0.1)">
      <defs>
       <path id="DejaVuSans-57" d="M 213 4666 
L 850 4666 
L 1831 722 
L 2809 4666 
L 3519 4666 
L 4500 722 
L 5478 4666 
L 6119 4666 
L 4947 0 
L 4153 0 
L 3169 4050 
L 2175 0 
L 1381 0 
L 213 4666 
z
" transform="scale(0.015625)"/>
       <path id="DejaVuSans-61" d="M 2194 1759 
Q 1497 1759 1228 1600 
Q 959 1441 959 1056 
Q 959 750 1161 570 
Q 1363 391 1709 391 
Q 2188 391 2477 730 
Q 2766 1069 2766 1631 
L 2766 1759 
L 2194 1759 
z
M 3341 1997 
L 3341 0 
L 2766 0 
L 2766 531 
Q 2569 213 2275 61 
Q 1981 -91 1556 -91 
Q 1019 -91 701 211 
Q 384 513 384 1019 
Q 384 1609 779 1909 
Q 1175 2209 1959 2209 
L 2766 2209 
L 2766 2266 
Q 2766 2663 2505 2880 
Q 2244 3097 1772 3097 
Q 1472 3097 1187 3025 
Q 903 2953 641 2809 
L 641 3341 
Q 956 3463 1253 3523 
Q 1550 3584 1831 3584 
Q 2591 3584 2966 3190 
Q 3341 2797 3341 1997 
z
" transform="scale(0.015625)"/>
       <path id="DejaVuSans-6c" d="M 603 4863 
L 1178 4863 
L 1178 0 
L 603 0 
L 603 4863 
z
" transform="scale(0.015625)"/>
       <path id="DejaVuSans-20" transform="scale(0.015625)"/>
       <path id="DejaVuSans-74" d="M 1172 4494 
L 1172 3500 
L 2356 3500 
L 2356 3053 
L 1172 3053 
L 1172 1153 
Q 1172 725 1289 603 
Q 1406 481 1766 481 
L 2356 481 
L 2356 0 
L 1766 0 
Q 1100 0 847 248 
Q 594 497 594 1153 
L 594 3053 
L 172 3053 
L 172 3500 
L 594 3500 
L 594 4494 
L 1172 4494 
z
" transform="scale(0.015625)"/>
       <path id="DejaVuSans-69" d="M 603 3500 
L 1178 3500 
L 1178 0 
L 603 0 
L 603 3500 
z
M 603 4863 
L 1178 4863 
L 1178 4134 
L 603 4134 
L 603 4863 
z
" transform="scale(0.015625)"/>
       <path id="DejaVuSans-6d" d="M 3328 2828 
Q 3544 3216 3844 3400 
Q 4144 3584 4550 3584 
Q 5097 3584 5394 3201 
Q 5691 2819 5691 2113 
L 5691 0 
L 5113 0 
L 5113 2094 
Q 5113 2597 4934 2840 
Q 4756 3084 4391 3084 
Q 3944 3084 3684 2787 
Q 3425 2491 3425 1978 
L 3425 0 
L 2847 0 
L 2847 2094 
Q 2847 2600 2669 2842 
Q 2491 3084 2119 3084 
Q 1678 3084 1418 2786 
Q 1159 2488 1159 1978 
L 1159 0 
L 581 0 
L 581 3500 
L 1159 3500 
L 1159 2956 
Q 1356 3278 1631 3431 
Q 1906 3584 2284 3584 
Q 2666 3584 2933 3390 
Q 3200 3197 3328 2828 
z
" transform="scale(0.015625)"/>
       <path id="DejaVuSans-65" d="M 3597 1894 
L 3597 1613 
L 953 1613 
Q 991 1019 1311 708 
Q 1631 397 2203 397 
Q 2534 397 2845 478 
Q 3156 559 3463 722 
L 3463 178 
Q 3153 47 2828 -22 
Q 2503 -91 2169 -91 
Q 1331 -91 842 396 
Q 353 884 353 1716 
Q 353 2575 817 3079 
Q 1281 3584 2069 3584 
Q 2775 3584 3186 3129 
Q 3597 2675 3597 1894 
z
M 3022 2063 
Q 3016 2534 2758 2815 
Q 2500 3097 2075 3097 
Q 1594 3097 1305 2825 
Q 1016 2553 972 2059 
L 3022 2063 
z
" transform="scale(0.015625)"/>
       <path id="DejaVuSans-28" d="M 1984 4856 
Q 1566 4138 1362 3434 
Q 1159 2731 1159 2009 
Q 1159 1288 1364 580 
Q 1569 -128 1984 -844 
L 1484 -844 
Q 1016 -109 783 600 
Q 550 1309 550 2009 
Q 550 2706 781 3412 
Q 1013 4119 1484 4856 
L 1984 4856 
z
" transform="scale(0.015625)"/>
       <path id="DejaVuSans-7a" d="M 353 3500 
L 3084 3500 
L 3084 2975 
L 922 459 
L 3084 459 
L 3084 0 
L 275 0 
L 275 525 
L 2438 3041 
L 353 3041 
L 353 3500 
z
" transform="scale(0.015625)"/>
       <path id="DejaVuSans-33" d="M 2597 2516 
Q 3050 2419 3304 2112 
Q 3559 1806 3559 1356 
Q 3559 666 3084 287 
Q 2609 -91 1734 -91 
Q 1441 -91 1130 -33 
Q 819 25 488 141 
L 488 750 
Q 750 597 1062 519 
Q 1375 441 1716 441 
Q 2309 441 2620 675 
Q 2931 909 2931 1356 
Q 2931 1769 2642 2001 
Q 2353 2234 1838 2234 
L 1294 2234 
L 1294 2753 
L 1863 2753 
Q 2328 2753 2575 2939 
Q 2822 3125 2822 3475 
Q 2822 3834 2567 4026 
Q 2313 4219 1838 4219 
Q 1578 4219 1281 4162 
Q 984 4106 628 3988 
L 628 4550 
Q 988 4650 1302 4700 
Q 1616 4750 1894 4750 
Q 2613 4750 3031 4423 
Q 3450 4097 3450 3541 
Q 3450 3153 3228 2886 
Q 3006 2619 2597 2516 
z
" transform="scale(0.015625)"/>
       <path id="DejaVuSans-2d" d="M 313 2009 
L 1997 2009 
L 1997 1497 
L 313 1497 
L 313 2009 
z
" transform="scale(0.015625)"/>
       <path id="DejaVuSans-62" d="M 3116 1747 
Q 3116 2381 2855 2742 
Q 2594 3103 2138 3103 
Q 1681 3103 1420 2742 
Q 1159 2381 1159 1747 
Q 1159 1113 1420 752 
Q 1681 391 2138 391 
Q 2594 391 2855 752 
Q 3116 1113 3116 1747 
z
M 1159 2969 
Q 1341 3281 1617 3432 
Q 1894 3584 2278 3584 
Q 2916 3584 3314 3078 
Q 3713 2572 3713 1747 
Q 3713 922 3314 415 
Q 2916 -91 2278 -91 
Q 1894 -91 1617 61 
Q 1341 213 1159 525 
L 1159 0 
L 581 0 
L 581 4863 
L 1159 4863 
L 1159 2969 
z
" transform="scale(0.015625)"/>
       <path id="DejaVuSans-73" d="M 2834 3397 
L 2834 2853 
Q 2591 2978 2328 3040 
Q 2066 3103 1784 3103 
Q 1356 3103 1142 2972 
Q 928 2841 928 2578 
Q 928 2378 1081 2264 
Q 1234 2150 1697 2047 
L 1894 2003 
Q 2506 1872 2764 1633 
Q 3022 1394 3022 966 
Q 3022 478 2636 193 
Q 2250 -91 1575 -91 
Q 1294 -91 989 -36 
Q 684 19 347 128 
L 347 722 
Q 666 556 975 473 
Q 1284 391 1588 391 
Q 1994 391 2212 530 
Q 2431 669 2431 922 
Q 2431 1156 2273 1281 
Q 2116 1406 1581 1522 
L 1381 1569 
Q 847 1681 609 1914 
Q 372 2147 372 2553 
Q 372 3047 722 3315 
Q 1072 3584 1716 3584 
Q 2034 3584 2315 3537 
Q 2597 3491 2834 3397 
z
" transform="scale(0.015625)"/>
       <path id="DejaVuSans-2e" d="M 684 794 
L 1344 794 
L 1344 0 
L 684 0 
L 684 794 
z
" transform="scale(0.015625)"/>
       <path id="DejaVuSans-56" d="M 1831 0 
L 50 4666 
L 709 4666 
L 2188 738 
L 3669 4666 
L 4325 4666 
L 2547 0 
L 1831 0 
z
" transform="scale(0.015625)"/>
       <path id="DejaVuSans-4c" d="M 628 4666 
L 1259 4666 
L 1259 531 
L 3531 531 
L 3531 0 
L 628 0 
L 628 4666 
z
" transform="scale(0.015625)"/>
       <path id="DejaVuSans-53" d="M 3425 4513 
L 3425 3897 
Q 3066 4069 2747 4153 
Q 2428 4238 2131 4238 
Q 1616 4238 1336 4038 
Q 1056 3838 1056 3469 
Q 1056 3159 1242 3001 
Q 1428 2844 1947 2747 
L 2328 2669 
Q 3034 2534 3370 2195 
Q 3706 1856 3706 1288 
Q 3706 609 3251 259 
Q 2797 -91 1919 -91 
Q 1588 -91 1214 -16 
Q 841 59 441 206 
L 441 856 
Q 825 641 1194 531 
Q 1563 422 1919 422 
Q 2459 422 2753 634 
Q 3047 847 3047 1241 
Q 3047 1584 2836 1778 
Q 2625 1972 2144 2069 
L 1759 2144 
Q 1053 2284 737 2584 
Q 422 2884 422 3419 
Q 422 4038 858 4394 
Q 1294 4750 2059 4750 
Q 2388 4750 2728 4690 
Q 3069 4631 3425 4513 
z
" transform="scale(0.015625)"/>
       <path id="DejaVuSans-41" d="M 2188 4044 
L 1331 1722 
L 3047 1722 
L 2188 4044 
z
M 1831 4666 
L 2547 4666 
L 4325 0 
L 3669 0 
L 3244 1197 
L 1141 1197 
L 716 0 
L 50 0 
L 1831 4666 
z
" transform="scale(0.015625)"/>
       <path id="DejaVuSans-54" d="M -19 4666 
L 3928 4666 
L 3928 4134 
L 2272 4134 
L 2272 0 
L 1638 0 
L 1638 4134 
L -19 4134 
L -19 4666 
z
" transform="scale(0.015625)"/>
       <path id="DejaVuSans-51" d="M 2522 4238 
Q 1834 4238 1429 3725 
Q 1025 3213 1025 2328 
Q 1025 1447 1429 934 
Q 1834 422 2522 422 
Q 3209 422 3611 934 
Q 4013 1447 4013 2328 
Q 4013 3213 3611 3725 
Q 3209 4238 2522 4238 
z
M 3406 84 
L 4238 -825 
L 3475 -825 
L 2784 -78 
Q 2681 -84 2626 -87 
Q 2572 -91 2522 -91 
Q 1538 -91 948 567 
Q 359 1225 359 2328 
Q 359 3434 948 4092 
Q 1538 4750 2522 4750 
Q 3503 4750 4090 4092 
Q 4678 3434 4678 2328 
Q 4678 1516 4351 937 
Q 4025 359 3406 84 
z
" transform="scale(0.015625)"/>
       <path id="DejaVuSans-46" d="M 628 4666 
L 3309 4666 
L 3309 4134 
L 1259 4134 
L 1259 2759 
L 3109 2759 
L 3109 2228 
L 1259 2228 
L 1259 0 
L 628 0 
L 628 4666 
z
" transform="scale(0.015625)"/>
       <path id="DejaVuSans-5f" d="M 3263 -1063 
L 3263 -1509 
L -63 -1509 
L -63 -1063 
L 3263 -1063 
z
" transform="scale(0.015625)"/>
       <path id="DejaVuSans-42" d="M 1259 2228 
L 1259 519 
L 2272 519 
Q 2781 519 3026 730 
Q 3272 941 3272 1375 
Q 3272 1813 3026 2020 
Q 2781 2228 2272 2228 
L 1259 2228 
z
M 1259 4147 
L 1259 2741 
L 2194 2741 
Q 2656 2741 2882 2914 
Q 3109 3088 3109 3444 
Q 3109 3797 2882 3972 
Q 2656 4147 2194 4147 
L 1259 4147 
z
M 628 4666 
L 2241 4666 
Q 2963 4666 3353 4366 
Q 3744 4066 3744 3513 
Q 3744 3084 3544 2831 
Q 3344 2578 2956 2516 
Q 3422 2416 3680 2098 
Q 3938 1781 3938 1306 
Q 3938 681 3513 340 
Q 3088 0 2303 0 
L 628 0 
L 628 4666 
z
" transform="scale(0.015625)"/>
       <path id="DejaVuSans-29" d="M 513 4856 
L 1013 4856 
Q 1481 4119 1714 3412 
Q 1947 2706 1947 2009 
Q 1947 1309 1714 600 
Q 1481 -109 1013 -844 
L 513 -844 
Q 928 -128 1133 580 
Q 1338 1288 1338 2009 
Q 1338 2731 1133 3434 
Q 928 4138 513 4856 
z
" transform="scale(0.015625)"/>
      </defs>
      <use xlink:href="#DejaVuSans-57"/>
      <use xlink:href="#DejaVuSans-61" transform="translate(92.501953 0)"/>
      <use xlink:href="#DejaVuSans-6c" transform="translate(153.78125 0)"/>
      <use xlink:href="#DejaVuSans-6c" transform="translate(181.564453 0)"/>
      <use xlink:href="#DejaVuSans-20" transform="translate(209.347656 0)"/>
      <use xlink:href="#DejaVuSans-74" transform="translate(241.134766 0)"/>
      <use xlink:href="#DejaVuSans-69" transform="translate(280.34375 0)"/>
      <use xlink:href="#DejaVuSans-6d" transform="translate(308.126953 0)"/>
      <use xlink:href="#DejaVuSans-65" transform="translate(405.539062 0)"/>
      <use xlink:href="#DejaVuSans-20" transform="translate(467.0625 0)"/>
      <use xlink:href="#DejaVuSans-28" transform="translate(498.849609 0)"/>
      <use xlink:href="#DejaVuSans-7a" transform="translate(537.863281 0)"/>
      <use xlink:href="#DejaVuSans-33" transform="translate(590.353516 0)"/>
      <use xlink:href="#DejaVuSans-2d" transform="translate(653.976562 0)"/>
      <use xlink:href="#DejaVuSans-62" transform="translate(690.060547 0)"/>
      <use xlink:href="#DejaVuSans-69" transform="translate(753.537109 0)"/>
      <use xlink:href="#DejaVuSans-74" transform="translate(781.320312 0)"/>
      <use xlink:href="#DejaVuSans-2d" transform="translate(820.529297 0)"/>
      <use xlink:href="#DejaVuSans-62" transform="translate(856.613281 0)"/>
      <use xlink:href="#DejaVuSans-6c" transform="translate(920.089844 0)"/>
      <use xlink:href="#DejaVuSans-61" transform="translate(947.873047 0)"/>
      <use xlink:href="#DejaVuSans-73" transform="translate(1009.152344 0)"/>
      <use xlink:href="#DejaVuSans-74" transform="translate(1061.251953 0)"/>
      <use xlink:href="#DejaVuSans-2e" transform="translate(1100.460938 0)"/>
      <use xlink:href="#DejaVuSans-56" transform="translate(1132.248047 0)"/>
      <use xlink:href="#DejaVuSans-4c" transform="translate(1200.65625 0)"/>
      <use xlink:href="#DejaVuSans-53" transform="translate(1256.369141 0)"/>
      <use xlink:href="#DejaVuSans-41" transform="translate(1321.720703 0)"/>
      <use xlink:href="#DejaVuSans-54" transform="translate(1382.378906 0)"/>
      <use xlink:href="#DejaVuSans-33" transform="translate(1443.462891 0)"/>
      <use xlink:href="#DejaVuSans-20" transform="translate(1507.085938 0)"/>
      <use xlink:href="#DejaVuSans-51" transform="translate(1538.873047 0)"/>
      <use xlink:href="#DejaVuSans-46" transform="translate(1617.583984 0)"/>
      <use xlink:href="#DejaVuSans-5f" transform="translate(1675.103516 0)"/>
      <use xlink:href="#DejaVuSans-42" transform="translate(1725.103516 0)"/>
      <use xlink:href="#DejaVuSans-56" transform="translate(1790.582031 0)"/>
      <use xlink:href="#DejaVuSans-29" transform="translate(1858.990234 0)"/>
     </g>
    </g>
   </g>
   <g id="matplotlib.axis_2">
    <g id="ytick_1">
     <g id="line2d_17">
      <path d="M 57.6 295.488 
L 414.72 295.488 
" clip-path="url(#pe7aa4ed99b)" style="fill: none; stroke: #b0b0b0; stroke-width: 0.8; stroke-linecap: square"/>
     </g>
     <g id="line2d_18">
      <defs>
       <path id="ma046148b77" d="M 0 0 
L -3.5 0 
" style="stroke: #000000; stroke-width: 0.8"/>
      </defs>
      <g>
       <use xlink:href="#ma046148b77" x="57.6" y="295.488" style="stroke: #000000; stroke-width: 0.8"/>
      </g>
     </g>
     <g id="text_10">
      <!-- 0 -->
      <g transform="translate(44.2375 299.287219) scale(0.1 -0.1)">
       <use xlink:href="#DejaVuSans-30"/>
      </g>
     </g>
    </g>
    <g id="ytick_2">
     <g id="line2d_19">
      <path d="M 57.6 263.36273 
L 414.72 263.36273 
" clip-path="url(#pe7aa4ed99b)" style="fill: none; stroke: #b0b0b0; stroke-width: 0.8; stroke-linecap: square"/>
     </g>
     <g id="line2d_20">
      <g>
       <use xlink:href="#ma046148b77" x="57.6" y="263.36273" style="stroke: #000000; stroke-width: 0.8"/>
      </g>
     </g>
     <g id="text_11">
      <!-- 200 -->
      <g transform="translate(31.5125 267.161949) scale(0.1 -0.1)">
       <use xlink:href="#DejaVuSans-32"/>
       <use xlink:href="#DejaVuSans-30" transform="translate(63.623047 0)"/>
       <use xlink:href="#DejaVuSans-30" transform="translate(127.246094 0)"/>
      </g>
     </g>
    </g>
    <g id="ytick_3">
     <g id="line2d_21">
      <path d="M 57.6 231.23746 
L 414.72 231.23746 
" clip-path="url(#pe7aa4ed99b)" style="fill: none; stroke: #b0b0b0; stroke-width: 0.8; stroke-linecap: square"/>
     </g>
     <g id="line2d_22">
      <g>
       <use xlink:href="#ma046148b77" x="57.6" y="231.23746" style="stroke: #000000; stroke-width: 0.8"/>
      </g>
     </g>
     <g id="text_12">
      <!-- 400 -->
      <g transform="translate(31.5125 235.036679) scale(0.1 -0.1)">
       <use xlink:href="#DejaVuSans-34"/>
       <use xlink:href="#DejaVuSans-30" transform="translate(63.623047 0)"/>
       <use xlink:href="#DejaVuSans-30" transform="translate(127.246094 0)"/>
      </g>
     </g>
    </g>
    <g id="ytick_4">
     <g id="line2d_23">
      <path d="M 57.6 199.11219 
L 414.72 199.11219 
" clip-path="url(#pe7aa4ed99b)" style="fill: none; stroke: #b0b0b0; stroke-width: 0.8; stroke-linecap: square"/>
     </g>
     <g id="line2d_24">
      <g>
       <use xlink:href="#ma046148b77" x="57.6" y="199.11219" style="stroke: #000000; stroke-width: 0.8"/>
      </g>
     </g>
     <g id="text_13">
      <!-- 600 -->
      <g transform="translate(31.5125 202.911409) scale(0.1 -0.1)">
       <use xlink:href="#DejaVuSans-36"/>
       <use xlink:href="#DejaVuSans-30" transform="translate(63.623047 0)"/>
       <use xlink:href="#DejaVuSans-30" transform="translate(127.246094 0)"/>
      </g>
     </g>
    </g>
    <g id="ytick_5">
     <g id="line2d_25">
      <path d="M 57.6 166.98692 
L 414.72 166.98692 
" clip-path="url(#pe7aa4ed99b)" style="fill: none; stroke: #b0b0b0; stroke-width: 0.8; stroke-linecap: square"/>
     </g>
     <g id="line2d_26">
      <g>
       <use xlink:href="#ma046148b77" x="57.6" y="166.98692" style="stroke: #000000; stroke-width: 0.8"/>
      </g>
     </g>
     <g id="text_14">
      <!-- 800 -->
      <g transform="translate(31.5125 170.786139) scale(0.1 -0.1)">
       <use xlink:href="#DejaVuSans-38"/>
       <use xlink:href="#DejaVuSans-30" transform="translate(63.623047 0)"/>
       <use xlink:href="#DejaVuSans-30" transform="translate(127.246094 0)"/>
      </g>
     </g>
    </g>
    <g id="ytick_6">
     <g id="line2d_27">
      <path d="M 57.6 134.86165 
L 414.72 134.86165 
" clip-path="url(#pe7aa4ed99b)" style="fill: none; stroke: #b0b0b0; stroke-width: 0.8; stroke-linecap: square"/>
     </g>
     <g id="line2d_28">
      <g>
       <use xlink:href="#ma046148b77" x="57.6" y="134.86165" style="stroke: #000000; stroke-width: 0.8"/>
      </g>
     </g>
     <g id="text_15">
      <!-- 1000 -->
      <g transform="translate(25.15 138.660869) scale(0.1 -0.1)">
       <use xlink:href="#DejaVuSans-31"/>
       <use xlink:href="#DejaVuSans-30" transform="translate(63.623047 0)"/>
       <use xlink:href="#DejaVuSans-30" transform="translate(127.246094 0)"/>
       <use xlink:href="#DejaVuSans-30" transform="translate(190.869141 0)"/>
      </g>
     </g>
    </g>
    <g id="ytick_7">
     <g id="line2d_29">
      <path d="M 57.6 102.73638 
L 414.72 102.73638 
" clip-path="url(#pe7aa4ed99b)" style="fill: none; stroke: #b0b0b0; stroke-width: 0.8; stroke-linecap: square"/>
     </g>
     <g id="line2d_30">
      <g>
       <use xlink:href="#ma046148b77" x="57.6" y="102.73638" style="stroke: #000000; stroke-width: 0.8"/>
      </g>
     </g>
     <g id="text_16">
      <!-- 1200 -->
      <g transform="translate(25.15 106.535599) scale(0.1 -0.1)">
       <use xlink:href="#DejaVuSans-31"/>
       <use xlink:href="#DejaVuSans-32" transform="translate(63.623047 0)"/>
       <use xlink:href="#DejaVuSans-30" transform="translate(127.246094 0)"/>
       <use xlink:href="#DejaVuSans-30" transform="translate(190.869141 0)"/>
      </g>
     </g>
    </g>
    <g id="ytick_8">
     <g id="line2d_31">
      <path d="M 57.6 70.61111 
L 414.72 70.61111 
" clip-path="url(#pe7aa4ed99b)" style="fill: none; stroke: #b0b0b0; stroke-width: 0.8; stroke-linecap: square"/>
     </g>
     <g id="line2d_32">
      <g>
       <use xlink:href="#ma046148b77" x="57.6" y="70.61111" style="stroke: #000000; stroke-width: 0.8"/>
      </g>
     </g>
     <g id="text_17">
      <!-- 1400 -->
      <g transform="translate(25.15 74.410329) scale(0.1 -0.1)">
       <use xlink:href="#DejaVuSans-31"/>
       <use xlink:href="#DejaVuSans-34" transform="translate(63.623047 0)"/>
       <use xlink:href="#DejaVuSans-30" transform="translate(127.246094 0)"/>
       <use xlink:href="#DejaVuSans-30" transform="translate(190.869141 0)"/>
      </g>
     </g>
    </g>
    <g id="text_18">
     <!-- Wall time (z3-int-blast.VLSAT3 QF_BV) -->
     <g transform="translate(18.792187 269.420969) rotate(-90) scale(0.1 -0.1)">
      <defs>
       <path id="DejaVuSans-6e" d="M 3513 2113 
L 3513 0 
L 2938 0 
L 2938 2094 
Q 2938 2591 2744 2837 
Q 2550 3084 2163 3084 
Q 1697 3084 1428 2787 
Q 1159 2491 1159 1978 
L 1159 0 
L 581 0 
L 581 3500 
L 1159 3500 
L 1159 2956 
Q 1366 3272 1645 3428 
Q 1925 3584 2291 3584 
Q 2894 3584 3203 3211 
Q 3513 2838 3513 2113 
z
" transform="scale(0.015625)"/>
      </defs>
      <use xlink:href="#DejaVuSans-57"/>
      <use xlink:href="#DejaVuSans-61" transform="translate(92.501953 0)"/>
      <use xlink:href="#DejaVuSans-6c" transform="translate(153.78125 0)"/>
      <use xlink:href="#DejaVuSans-6c" transform="translate(181.564453 0)"/>
      <use xlink:href="#DejaVuSans-20" transform="translate(209.347656 0)"/>
      <use xlink:href="#DejaVuSans-74" transform="translate(241.134766 0)"/>
      <use xlink:href="#DejaVuSans-69" transform="translate(280.34375 0)"/>
      <use xlink:href="#DejaVuSans-6d" transform="translate(308.126953 0)"/>
      <use xlink:href="#DejaVuSans-65" transform="translate(405.539062 0)"/>
      <use xlink:href="#DejaVuSans-20" transform="translate(467.0625 0)"/>
      <use xlink:href="#DejaVuSans-28" transform="translate(498.849609 0)"/>
      <use xlink:href="#DejaVuSans-7a" transform="translate(537.863281 0)"/>
      <use xlink:href="#DejaVuSans-33" transform="translate(590.353516 0)"/>
      <use xlink:href="#DejaVuSans-2d" transform="translate(653.976562 0)"/>
      <use xlink:href="#DejaVuSans-69" transform="translate(690.060547 0)"/>
      <use xlink:href="#DejaVuSans-6e" transform="translate(717.84375 0)"/>
      <use xlink:href="#DejaVuSans-74" transform="translate(781.222656 0)"/>
      <use xlink:href="#DejaVuSans-2d" transform="translate(820.431641 0)"/>
      <use xlink:href="#DejaVuSans-62" transform="translate(856.515625 0)"/>
      <use xlink:href="#DejaVuSans-6c" transform="translate(919.992188 0)"/>
      <use xlink:href="#DejaVuSans-61" transform="translate(947.775391 0)"/>
      <use xlink:href="#DejaVuSans-73" transform="translate(1009.054688 0)"/>
      <use xlink:href="#DejaVuSans-74" transform="translate(1061.154297 0)"/>
      <use xlink:href="#DejaVuSans-2e" transform="translate(1100.363281 0)"/>
      <use xlink:href="#DejaVuSans-56" transform="translate(1132.150391 0)"/>
      <use xlink:href="#DejaVuSans-4c" transform="translate(1200.558594 0)"/>
      <use xlink:href="#DejaVuSans-53" transform="translate(1256.271484 0)"/>
      <use xlink:href="#DejaVuSans-41" transform="translate(1321.623047 0)"/>
      <use xlink:href="#DejaVuSans-54" transform="translate(1382.28125 0)"/>
      <use xlink:href="#DejaVuSans-33" transform="translate(1443.365234 0)"/>
      <use xlink:href="#DejaVuSans-20" transform="translate(1506.988281 0)"/>
      <use xlink:href="#DejaVuSans-51" transform="translate(1538.775391 0)"/>
      <use xlink:href="#DejaVuSans-46" transform="translate(1617.486328 0)"/>
      <use xlink:href="#DejaVuSans-5f" transform="translate(1675.005859 0)"/>
      <use xlink:href="#DejaVuSans-42" transform="translate(1725.005859 0)"/>
      <use xlink:href="#DejaVuSans-56" transform="translate(1790.484375 0)"/>
      <use xlink:href="#DejaVuSans-29" transform="translate(1858.892578 0)"/>
     </g>
    </g>
   </g>
   <g id="line2d_33">
    <path d="M 73.832727 295.488 
L 398.487273 53.568 
" clip-path="url(#pe7aa4ed99b)" style="fill: none; stroke-dasharray: 5.55,2.4; stroke-dashoffset: 0; stroke: #000000; stroke-width: 1.5"/>
   </g>
   <g id="patch_3">
    <path d="M 57.6 307.584 
L 57.6 41.472 
" style="fill: none; stroke: #000000; stroke-width: 0.8; stroke-linejoin: miter; stroke-linecap: square"/>
   </g>
   <g id="patch_4">
    <path d="M 414.72 307.584 
L 414.72 41.472 
" style="fill: none; stroke: #000000; stroke-width: 0.8; stroke-linejoin: miter; stroke-linecap: square"/>
   </g>
   <g id="patch_5">
    <path d="M 57.6 307.584 
L 414.72 307.584 
" style="fill: none; stroke: #000000; stroke-width: 0.8; stroke-linejoin: miter; stroke-linecap: square"/>
   </g>
   <g id="patch_6">
    <path d="M 57.6 41.472 
L 414.72 41.472 
" style="fill: none; stroke: #000000; stroke-width: 0.8; stroke-linejoin: miter; stroke-linecap: square"/>
   </g>
   <g id="text_19">
    <!-- Scatter: z3-bit-blast.VLSAT3 QF_BV vs z3-int-blast.VLSAT3 QF_BV -->
    <g transform="translate(41.671875 35.472) scale(0.12 -0.12)">
     <defs>
      <path id="DejaVuSans-63" d="M 3122 3366 
L 3122 2828 
Q 2878 2963 2633 3030 
Q 2388 3097 2138 3097 
Q 1578 3097 1268 2742 
Q 959 2388 959 1747 
Q 959 1106 1268 751 
Q 1578 397 2138 397 
Q 2388 397 2633 464 
Q 2878 531 3122 666 
L 3122 134 
Q 2881 22 2623 -34 
Q 2366 -91 2075 -91 
Q 1284 -91 818 406 
Q 353 903 353 1747 
Q 353 2603 823 3093 
Q 1294 3584 2113 3584 
Q 2378 3584 2631 3529 
Q 2884 3475 3122 3366 
z
" transform="scale(0.015625)"/>
      <path id="DejaVuSans-72" d="M 2631 2963 
Q 2534 3019 2420 3045 
Q 2306 3072 2169 3072 
Q 1681 3072 1420 2755 
Q 1159 2438 1159 1844 
L 1159 0 
L 581 0 
L 581 3500 
L 1159 3500 
L 1159 2956 
Q 1341 3275 1631 3429 
Q 1922 3584 2338 3584 
Q 2397 3584 2469 3576 
Q 2541 3569 2628 3553 
L 2631 2963 
z
" transform="scale(0.015625)"/>
      <path id="DejaVuSans-3a" d="M 750 794 
L 1409 794 
L 1409 0 
L 750 0 
L 750 794 
z
M 750 3309 
L 1409 3309 
L 1409 2516 
L 750 2516 
L 750 3309 
z
" transform="scale(0.015625)"/>
      <path id="DejaVuSans-76" d="M 191 3500 
L 800 3500 
L 1894 563 
L 2988 3500 
L 3597 3500 
L 2284 0 
L 1503 0 
L 191 3500 
z
" transform="scale(0.015625)"/>
     </defs>
     <use xlink:href="#DejaVuSans-53"/>
     <use xlink:href="#DejaVuSans-63" transform="translate(63.476562 0)"/>
     <use xlink:href="#DejaVuSans-61" transform="translate(118.457031 0)"/>
     <use xlink:href="#DejaVuSans-74" transform="translate(179.736328 0)"/>
     <use xlink:href="#DejaVuSans-74" transform="translate(218.945312 0)"/>
     <use xlink:href="#DejaVuSans-65" transform="translate(258.154297 0)"/>
     <use xlink:href="#DejaVuSans-72" transform="translate(319.677734 0)"/>
     <use xlink:href="#DejaVuSans-3a" transform="translate(359.041016 0)"/>
     <use xlink:href="#DejaVuSans-20" transform="translate(392.732422 0)"/>
     <use xlink:href="#DejaVuSans-7a" transform="translate(424.519531 0)"/>
     <use xlink:href="#DejaVuSans-33" transform="translate(477.009766 0)"/>
     <use xlink:href="#DejaVuSans-2d" transform="translate(540.632812 0)"/>
     <use xlink:href="#DejaVuSans-62" transform="translate(576.716797 0)"/>
     <use xlink:href="#DejaVuSans-69" transform="translate(640.193359 0)"/>
     <use xlink:href="#DejaVuSans-74" transform="translate(667.976562 0)"/>
     <use xlink:href="#DejaVuSans-2d" transform="translate(707.185547 0)"/>
     <use xlink:href="#DejaVuSans-62" transform="translate(743.269531 0)"/>
     <use xlink:href="#DejaVuSans-6c" transform="translate(806.746094 0)"/>
     <use xlink:href="#DejaVuSans-61" transform="translate(834.529297 0)"/>
     <use xlink:href="#DejaVuSans-73" transform="translate(895.808594 0)"/>
     <use xlink:href="#DejaVuSans-74" transform="translate(947.908203 0)"/>
     <use xlink:href="#DejaVuSans-2e" transform="translate(987.117188 0)"/>
     <use xlink:href="#DejaVuSans-56" transform="translate(1018.904297 0)"/>
     <use xlink:href="#DejaVuSans-4c" transform="translate(1087.3125 0)"/>
     <use xlink:href="#DejaVuSans-53" transform="translate(1143.025391 0)"/>
     <use xlink:href="#DejaVuSans-41" transform="translate(1208.376953 0)"/>
     <use xlink:href="#DejaVuSans-54" transform="translate(1269.035156 0)"/>
     <use xlink:href="#DejaVuSans-33" transform="translate(1330.119141 0)"/>
     <use xlink:href="#DejaVuSans-20" transform="translate(1393.742188 0)"/>
     <use xlink:href="#DejaVuSans-51" transform="translate(1425.529297 0)"/>
     <use xlink:href="#DejaVuSans-46" transform="translate(1504.240234 0)"/>
     <use xlink:href="#DejaVuSans-5f" transform="translate(1561.759766 0)"/>
     <use xlink:href="#DejaVuSans-42" transform="translate(1611.759766 0)"/>
     <use xlink:href="#DejaVuSans-56" transform="translate(1677.238281 0)"/>
     <use xlink:href="#DejaVuSans-20" transform="translate(1745.646484 0)"/>
     <use xlink:href="#DejaVuSans-76" transform="translate(1777.433594 0)"/>
     <use xlink:href="#DejaVuSans-73" transform="translate(1836.613281 0)"/>
     <use xlink:href="#DejaVuSans-20" transform="translate(1888.712891 0)"/>
     <use xlink:href="#DejaVuSans-7a" transform="translate(1920.5 0)"/>
     <use xlink:href="#DejaVuSans-33" transform="translate(1972.990234 0)"/>
     <use xlink:href="#DejaVuSans-2d" transform="translate(2036.613281 0)"/>
     <use xlink:href="#DejaVuSans-69" transform="translate(2072.697266 0)"/>
     <use xlink:href="#DejaVuSans-6e" transform="translate(2100.480469 0)"/>
     <use xlink:href="#DejaVuSans-74" transform="translate(2163.859375 0)"/>
     <use xlink:href="#DejaVuSans-2d" transform="translate(2203.068359 0)"/>
     <use xlink:href="#DejaVuSans-62" transform="translate(2239.152344 0)"/>
     <use xlink:href="#DejaVuSans-6c" transform="translate(2302.628906 0)"/>
     <use xlink:href="#DejaVuSans-61" transform="translate(2330.412109 0)"/>
     <use xlink:href="#DejaVuSans-73" transform="translate(2391.691406 0)"/>
     <use xlink:href="#DejaVuSans-74" transform="translate(2443.791016 0)"/>
     <use xlink:href="#DejaVuSans-2e" transform="translate(2483 0)"/>
     <use xlink:href="#DejaVuSans-56" transform="translate(2514.787109 0)"/>
     <use xlink:href="#DejaVuSans-4c" transform="translate(2583.195312 0)"/>
     <use xlink:href="#DejaVuSans-53" transform="translate(2638.908203 0)"/>
     <use xlink:href="#DejaVuSans-41" transform="translate(2704.259766 0)"/>
     <use xlink:href="#DejaVuSans-54" transform="translate(2764.917969 0)"/>
     <use xlink:href="#DejaVuSans-33" transform="translate(2826.001953 0)"/>
     <use xlink:href="#DejaVuSans-20" transform="translate(2889.625 0)"/>
     <use xlink:href="#DejaVuSans-51" transform="translate(2921.412109 0)"/>
     <use xlink:href="#DejaVuSans-46" transform="translate(3000.123047 0)"/>
     <use xlink:href="#DejaVuSans-5f" transform="translate(3057.642578 0)"/>
     <use xlink:href="#DejaVuSans-42" transform="translate(3107.642578 0)"/>
     <use xlink:href="#DejaVuSans-56" transform="translate(3173.121094 0)"/>
    </g>
   </g>
  </g>
 </g>
 <defs>
  <clipPath id="pe7aa4ed99b">
   <rect x="57.6" y="41.472" width="357.12" height="266.112"/>
  </clipPath>
 </defs>
</svg>
